# xmcd
#
# Track frame offsets:
#	150
#	57407
#	72355
#	83793
#	93476
#	104752
#	116838
#	130058
#	150352
#	161466
#	181706
#	192496
#	200829
#	212294
#	219763
#	233226
#	254870
#	273517
#	291597
#	305573
#
# Disc length: 4248 seconds
#
# Revision: 0
# Processed by: cddbd v1.5.2PL0 Copyright (c) Steve Scherf et al.
# Submitted via: EasyCDDAExtractor 16.0.6.1
#
DISCID=31109614
DTITLE=Συλλογικός δίσκος - Εβδομήντα χρόνια-Μ. Θεοδωράκης 2 
DYEAR=1995
DGENRE=Ποικίλη
TTITLE0=Καλογιάννης Αντώνης - Επιφάνια-Αβέρωφ
TTITLE1=Φαραντούρη Μαρία - Antonio Torres Heredia-1
TTITLE2=Καλογιάννης Αντώνης - Είμαστε δυό
TTITLE3=Φαραντούρη Μαρία - Λίγο ακόμα
TTITLE4=Φαραντούρη Μαρία-Δημητριάδη Μαρία - Ποτέ, ποτέ
TTITLE5=Θεοδωράκης Μίκης - Διότι δεν συνεμορφώθην
TTITLE6=Δημητριάδη Μαρία - Ο λεβέντης
TTITLE7=Δημητριάδη Μαρία-Φαραντούρη Μαρία - Όταν χτυπήσεις δυό φορές
TTITLE8=Φαραντούρη Μαρία - Ποιος τη ζωή μου
TTITLE9=Δημητριάδη Μαρία - Το τραίνο φεύγει στις οκτώ
TTITLE10=Καλογιάννης Αντώνης - Το παλληκάρι έχει καημό
TTITLE11=Δημητριάδη Μαρία - Σ' αυτή τη γειτονιά
TTITLE12=Μερκούρη Μελίνα - Ο δικαστής
TTITLE13=Καλογιάννης Αντώνης - Καρτέρεμα
TTITLE14=Μητροπάνος Δημήτρης - Η λυπημένη
TTITLE15=Βοσκόπουλος Τόλης - Παράπονο
TTITLE16=Μητροπάνος Δημήτρης - Το χατήρι
TTITLE17=Μητσιάς Μανώλης - Το πάθος που διώκεται
TTITLE18=Καλογιάννης Αντώνης - Έχεις μάτια το φεγγάρι
TTITLE19=Παιδ. χορ. Δημ. Ωδ. Λάρισας - Νανούρισμα
EXTD=
EXTT0=
EXTT1=
EXTT2=
EXTT3=
EXTT4=
EXTT5=
EXTT6=
EXTT7=
EXTT8=
EXTT9=
EXTT10=
EXTT11=
EXTT12=
EXTT13=
EXTT14=
EXTT15=
EXTT16=
EXTT17=
EXTT18=
EXTT19=
PLAYORDER=
